HIERARCHY
ROOT Hips
{
    OFFSET 0.000000 0.000000 0.000000
    CHANNELS 6 Xposition Yposition Zposition Zrotation Xrotation Yrotation
    JOINT Spine
    {
        OFFSET -0.000000 14.517291 0.000000
        CHANNELS 3 Zrotation Xrotation Yrotation
        JOINT Spine1
        {
            OFFSET -0.000000 37.558300 0.000000
            CHANNELS 3 Zrotation Xrotation Yrotation
            JOINT Neck
            {
                OFFSET -0.000000 37.404057 3.400369
                CHANNELS 3 Zrotation Xrotation Yrotation
                JOINT Head
                {
                    OFFSET -0.000000 24.785618 -3.540803
                    CHANNELS 3 Zrotation Xrotation Yrotation
                    End Site
                    {
                        OFFSET -0.000000 35.408028 0.000000
                    }
                }
            }
            JOINT LeftShoulder
            {
                OFFSET 6.992933 33.973492 -0.192664
                CHANNELS 3 Zrotation Xrotation Yrotation
                JOINT LeftArm
                {
                    OFFSET 21.527611 0.000000 0.000000
                    CHANNELS 3 Zrotation Xrotation Yrotation
                    JOINT LeftForeArm
                    {
                        OFFSET 56.353916 0.000000 0.000000
                        CHANNELS 3 Zrotation Xrotation Yrotation
                        JOINT LeftHand
                        {
                            OFFSET 47.774071 0.000000 0.000000
                            CHANNELS 3 Zrotation Xrotation Yrotation
                            End Site
                            {
                                OFFSET 26.556021 0.000000 0.000000
                            }
                        }
                    }
                }
            }
            JOINT RightShoulder
            {
                OFFSET -7.065357 33.973492 -0.192664
                CHANNELS 3 Zrotation Xrotation Yrotation
                JOINT RightArm
                {
                    OFFSET -21.527611 0.000000 0.000000
                    CHANNELS 3 Zrotation Xrotation Yrotation
                    JOINT RightForeArm
                    {
                        OFFSET -56.353916 0.000000 0.000000
                        CHANNELS 3 Zrotation Xrotation Yrotation
                        JOINT RightHand
                        {
                            OFFSET -47.774071 0.000000 0.000000
                            CHANNELS 3 Zrotation Xrotation Yrotation
                            End Site
                            {
                                OFFSET -26.556021 0.000000 0.000000
                            }
                        }
                    }
                }
            }
        }
    }
    JOINT LeftUpLeg
    {
        OFFSET 17.704014 0.000000 0.000000
        CHANNELS 3 Zrotation Xrotation Yrotation
        JOINT LeftLeg
        {
            OFFSET -0.000000 -81.181816 0.000000
            CHANNELS 3 Zrotation Xrotation Yrotation
            JOINT LeftFoot
            {
                OFFSET -0.000000 -62.821102 0.000000
                CHANNELS 3 Zrotation Xrotation Yrotation
                JOINT LeftToeBase
                {
                    OFFSET -0.000000 -11.507608 26.556021
                    CHANNELS 3 Zrotation Xrotation Yrotation
                    End Site
                    {
                        OFFSET -0.000000 0.000000 7.081605
                    }
                }
            }
        }
    }
    JOINT RightUpLeg
    {
        OFFSET -17.704014 0.000000 0.000000
        CHANNELS 3 Zrotation Xrotation Yrotation
        JOINT RightLeg
        {
            OFFSET -0.000000 -81.181816 0.000000
            CHANNELS 3 Zrotation Xrotation Yrotation
            JOINT RightFoot
            {
                OFFSET -0.000000 -62.821102 0.000000
                CHANNELS 3 Zrotation Xrotation Yrotation
                JOINT RightToeBase
                {
                    OFFSET -0.000000 -11.507608 26.556021
                    CHANNELS 3 Zrotation Xrotation Yrotation
                    End Site
                    {
                        OFFSET -0.000000 0.000000 7.081605
                    }
                }
            }
        }
    }
}
MOTION
Frames:    12
Frame Time:    0.008333
34.484154    159.159393    -66.908005    8.518951    24.160393    -31.319611    -3.778417    9.404202    2.329275    -3.249327    -2.855465    0.586648    16.276190    6.741562    14.089388    -8.312911    -24.240328    10.339579    3.821187    7.350943    -15.544411    -32.496399    10.449413    -42.683399    44.704945    -45.122120    -40.800179    -21.888880    -24.377832    -39.007851    -0.736858    2.684968    -1.887847    36.452244    11.010455    70.631310    -3.221831    -15.119433    99.810005    13.112743    -9.040586    20.572458    20.505428    -49.102566    4.701222    -16.490608    27.510452    -8.550602    -1.182849    -2.907010    41.058334    0.000000    0.000000    0.000000    -12.888359    -14.497918    -9.274418    3.401794    3.334909    -9.218960    13.952593    2.002760    -8.622544    0.000000    0.000000    0.000000    
34.489971    159.161072    -66.901604    8.523007    24.147982    -31.317312    -3.790704    9.402823    2.332160    -3.226452    -2.846665    0.588067    16.287344    6.727461    14.093007    -8.318817    -24.230705    10.338900    3.818983    7.352397    -15.544149    -32.497429    10.431981    -42.694267    44.662117    -45.114971    -40.852596    -21.865131    -24.374554    -38.990650    -0.735837    2.686081    -1.893403    36.452911    11.006990    70.621483    -3.223032    -15.129126    99.813721    13.118042    -9.050852    20.546667    20.483196    -49.095150    4.704656    -16.482334    27.509958    -8.558489    -1.173295    -2.888135    41.043678    0.000000    0.000000    0.000000    -12.898581    -14.480186    -9.253471    3.402258    3.316934    -9.247515    13.945599    2.011362    -8.623519    0.000000    0.000000    0.000000    
34.490898    159.160858    -66.900726    8.531326    24.148424    -31.328615    -3.808053    9.397710    2.344337    -3.205293    -2.856900    0.591952    16.303637    6.710485    14.092086    -8.312982    -24.209272    10.337449    3.826717    7.353664    -15.547442    -32.500526    10.446811    -42.703110    44.687286    -45.109344    -40.855774    -21.864868    -24.361115    -38.964046    -0.715240    2.693499    -1.906775    36.450409    11.010135    70.615410    -3.218634    -15.131812    99.812851    13.102065    -9.061031    20.553959    20.489941    -49.098267    4.719503    -16.484274    27.518929    -8.573793    -1.175573    -2.892637    41.048351    0.000000    0.000000    0.000000    -12.901298    -14.478862    -9.230525    3.403170    3.298606    -9.254460    13.939583    2.014594    -8.632337    0.000000    0.000000    0.000000    
34.496258    159.163910    -66.899719    8.533017    24.141464    -31.335669    -3.803792    9.399177    2.347721    -3.206329    -2.851196    0.593324    16.298319    6.685583    14.087691    -8.274514    -24.191980    10.344100    3.831011    7.352474    -15.533770    -32.488197    10.443570    -42.726501    44.676449    -45.112045    -40.871758    -21.859358    -24.364849    -38.959259    -0.709894    2.693145    -1.906742    36.465199    11.007737    70.617065    -3.218569    -15.133858    99.800438    13.087536    -9.066336    20.556135    20.485582    -49.092064    4.728267    -16.480574    27.519173    -8.578616    -1.180993    -2.887997    41.054150    0.000000    0.000000    0.000000    -12.902057    -14.469172    -9.209706    3.392896    3.280312    -9.263377    13.956447    2.029205    -8.636030    0.000000    0.000000    0.000000    
34.503937    159.169144    -66.898621    8.545689    24.143703    -31.343676    -3.815140    9.397484    2.351505    -3.189326    -2.863123    0.594434    16.301300    6.656780    14.086860    -8.252448    -24.154579    10.348944    3.837366    7.352458    -15.533520    -32.493465    10.443376    -42.732502    44.693874    -45.093346    -40.872948    -21.874249    -24.327402    -38.963181    -0.701194    2.697889    -1.914189    36.470001    11.013837    70.622116    -3.225542    -15.138404    99.789459    13.099903    -9.063103    20.541615    20.475185    -49.100552    4.714691    -16.479509    27.515917    -8.559399    -1.184514    -2.879522    41.046371    0.000000    0.000000    0.000000    -12.907783    -14.470834    -9.215464    3.387408    3.260113    -9.251935    13.957578    2.041515    -8.649441    0.000000    0.000000    0.000000    
34.510536    159.172089    -66.897736    8.555591    24.145098    -31.352922    -3.823164    9.394483    2.355507    -3.176508    -2.871628    0.595636    16.298849    6.649394    14.084604    -8.224629    -24.145838    10.355895    3.850412    7.352710    -15.538745    -32.507519    10.434386    -42.733677    44.694988    -45.079098    -40.885826    -21.893595    -24.289938    -38.995586    -0.689789    2.711223    -1.918391    36.465008    11.020139    70.633949    -3.218418    -15.157072    99.784859    13.108366    -9.088183    20.551476    20.472618    -49.102837    4.697260    -16.493002    27.500376    -8.532640    -1.175865    -2.862006    41.046200    0.000000    0.000000    0.000000    -12.913663    -14.468205    -9.206300    3.390202    3.233738    -9.266828    13.953135    2.060898    -8.653215    0.000000    0.000000    0.000000    
34.518974    159.176270    -66.895744    8.560798    24.146036    -31.366606    -3.826794    9.393567    2.366040    -3.160061    -2.881480    0.599237    16.314379    6.672399    14.080586    -8.253820    -24.165407    10.342294    3.846555    7.348818    -15.545770    -32.504726    10.438194    -42.729500    44.685997    -45.074722    -40.906746    -21.887564    -24.282028    -38.989574    -0.685458    2.713501    -1.911121    36.467411    11.025147    70.631393    -3.233936    -15.159670    99.770065    13.105059    -9.077457    20.523582    20.473423    -49.101810    4.707710    -16.483141    27.501894    -8.552504    -1.195084    -2.871055    41.058632    0.000000    0.000000    0.000000    -12.913773    -14.463917    -9.207769    3.385936    3.203729    -9.274406    13.952802    2.093522    -8.633482    0.000000    0.000000    0.000000    
34.527737    159.178955    -66.894302    8.570345    24.155193    -31.376892    -3.825936    9.380513    2.364347    -3.144535    -2.881038    0.599164    16.310215    6.661629    14.084465    -8.242390    -24.151827    10.350008    3.842253    7.344482    -15.535077    -32.480965    10.459279    -42.742214    44.740074    -45.069759    -40.856796    -21.923767    -24.254698    -39.032684    -0.684678    2.709738    -1.902377    36.454052    11.039887    70.644714    -3.236522    -15.179035    99.759178    13.117236    -9.091138    20.538197    20.471899    -49.112053    4.694209    -16.487890    27.493603    -8.524362    -1.192996    -2.862609    41.062382    0.000000    0.000000    0.000000    -12.913504    -14.468207    -9.223200    3.379194    3.178047    -9.281725    13.954013    2.117081    -8.622695    0.000000    0.000000    0.000000    
34.538532    159.184006    -66.894882    8.578053    24.156715    -31.391830    -3.817769    9.383272    2.365792    -3.152721    -2.888794    0.599476    16.311649    6.643422    14.086268    -8.217425    -24.129845    10.359208    3.856761    7.342804    -15.527740    -32.497334    10.427009    -42.749756    44.690853    -45.051975    -40.909885    -21.916767    -24.230328    -39.035675    -0.670152    2.711873    -1.891156    36.460297    11.036773    70.650360    -3.227035    -15.166540    99.754601    13.127979    -9.086783    20.545460    20.476698    -49.110737    4.686733    -16.498138    27.478769    -8.491892    -1.193146    -2.852554    41.045475    0.000000    0.000000    0.000000    -12.916057    -14.467178    -9.222053    3.377346    3.150651    -9.284056    13.949661    2.146955    -8.616763    0.000000    0.000000    0.000000    
34.543541    159.185547    -66.893791    8.582702    24.160692    -31.409119    -3.822408    9.372314    2.374408    -3.133399    -2.879975    0.603116    16.309822    6.649127    14.083063    -8.220798    -24.142097    10.354870    3.857672    7.336586    -15.523266    -32.478336    10.439542    -42.755486    44.731228    -45.038403    -40.878056    -21.923754    -24.203924    -39.055813    -0.669356    2.710009    -1.887068    36.432701    11.058197    70.673691    -3.258380    -15.205530    99.733330    13.128884    -9.089919    20.557121    20.490765    -49.108463    4.713652    -16.499277    27.476629    -8.488557    -1.186488    -2.853595    41.046535    0.000000    0.000000    0.000000    -12.908628    -14.465032    -9.231109    3.369571    3.118279    -9.290397    13.944264    2.176788    -8.607191    0.000000    0.000000    0.000000    
34.560757    159.188385    -66.892860    8.593460    24.158308    -31.415724    -3.814548    9.377874    2.374261    -3.137273    -2.883923    0.602935    16.297268    6.658819    14.079399    -8.203637    -24.162968    10.358082    3.868495    7.331624    -15.537520    -32.493103    10.399081    -42.744156    44.671291    -45.028904    -40.941429    -21.905466    -24.193722    -39.059792    -0.671014    2.721660    -1.881818    36.440559    11.047018    70.690086    -3.253453    -15.191904    99.734444    13.129088    -9.081378    20.559738    20.471914    -49.113255    4.690277    -16.498194    27.469170    -8.488148    -1.191103    -2.846208    41.058628    0.000000    0.000000    0.000000    -12.921224    -14.464581    -9.253708    3.362466    3.104795    -9.263617    13.965508    2.188840    -8.612305    0.000000    0.000000    0.000000    
34.568966    159.189163    -66.893471    8.598795    24.156504    -31.430279    -3.823772    9.383358    2.381309    -3.114672    -2.884835    0.605497    16.313511    6.658111    14.080584    -8.240640    -24.162771    10.344996    3.866752    7.331915    -15.533774    -32.494495    10.374509    -42.751587    44.652554    -45.018753    -40.970207    -21.905462    -24.172396    -39.076332    -0.675431    2.711126    -1.877714    36.422966    11.065799    70.704330    -3.265374    -15.207739    99.734291    13.129947    -9.083405    20.559357    20.473675    -49.108147    4.705156    -16.491467    27.465544    -8.516683    -1.197249    -2.849953    41.081032    0.000000    0.000000    0.000000    -12.922853    -14.459378    -9.248155    3.358736    3.077400    -9.257569    13.957444    2.207468    -8.613442    0.000000    0.000000    0.000000    
